<svg aria-hidden="true" style="position:absolute;width:0;height:0;overflow:hidden" xmlns="http://www.w3.org/2000/svg"><defs><symbol id="icon-Logo" viewBox="0 0 39 32">
<path xd="M22.371 9.64l-0.749-0.571c-0.097-0.079-0.223-0.127-0.36-0.127-0.177 0-0.335 0.080-0.44 0.206l-0.001 0.001-10.36 11.897 0.16 0.177 2.566-2.366c-0.146-0.060-0.247-0.201-0.247-0.366 0-0.218 0.177-0.394 0.394-0.394 0.002 0 0.005 0 0.007 0h-0c0 0 0 0 0 0 0.174 0 0.321 0.114 0.371 0.272l0.001 0.003 3.383-3.137c0.050-0.040 0.113-0.065 0.183-0.065s0.133 0.024 0.183 0.065l-0.001-0 0.171 0.126c0.046 0.033 0.104 0.053 0.166 0.053 0.086 0 0.164-0.038 0.216-0.099l0-0 4.423-4.96c0.081-0.085 0.132-0.2 0.132-0.328 0-0.159-0.078-0.3-0.199-0.386l-0.001-0.001z"></path>
<path d="M27.24 12.989c-2.14 1.539-4.64 2.746-7.335 3.477l-0.162 0.037c-2.401 0.638-5.193 1.072-8.063 1.208l-0.092 0.003c0.062 0.445 0.166 0.846 0.31 1.227l-0.013-0.039c1.554 1.406 13.257-0.994 15.543-3.771 0.486-0.577-0.189-2.143-0.189-2.143zM13.343 18.857c-0.215 0-0.389-0.174-0.389-0.389s0.174-0.389 0.389-0.389c0.215 0 0.389 0.174 0.389 0.389v0c0 0.002 0 0.004 0 0.006 0 0.211-0.171 0.382-0.382 0.382-0.002 0-0.004-0-0.007-0h0zM2.286 12.166l0.091-0.394 1.486 0.337c0.123 0.226 0.198 0.475 0.223 0.731 0.029 0.271 0.011 0.546-0.051 0.811-0.079 0.386-0.252 0.722-0.493 0.997l0.002-0.002c-0.232 0.261-0.529 0.459-0.866 0.568l-0.014 0.004c-0.184 0.059-0.395 0.093-0.615 0.093-0.165 0-0.326-0.019-0.48-0.055l0.014 0.003c-0.373-0.082-0.697-0.259-0.955-0.504l0.001 0.001c-0.256-0.236-0.445-0.54-0.54-0.884l-0.003-0.013c-0.049-0.171-0.077-0.368-0.077-0.571s0.028-0.4 0.081-0.587l-0.004 0.015c0.062-0.28 0.171-0.547 0.326-0.789 0.147-0.22 0.339-0.399 0.563-0.527l0.008-0.004 0.206 0.314c-0.391 0.243-0.669 0.637-0.753 1.099l-0.002 0.010c-0.031 0.125-0.049 0.268-0.049 0.416 0 0.171 0.024 0.337 0.069 0.494l-0.003-0.013c0.077 0.278 0.229 0.529 0.44 0.726 0.217 0.21 0.488 0.354 0.783 0.417 0.286 0.080 0.589 0.080 0.874 0 0.283-0.095 0.524-0.255 0.713-0.462l0.001-0.001c0.2-0.23 0.337-0.507 0.4-0.806 0.036-0.132 0.056-0.284 0.056-0.441 0-0.234-0.046-0.458-0.129-0.662l0.004 0.012-1.309-0.331zM5.52 8.571l-1.331 1.777 0.571 1.023-0.263 0.354-2.114-3.857 0.246-0.337 4.303 0.926-0.269 0.354-1.143-0.24zM5.143 8.48l-2.286-0.514 1.143 2.051 1.143-1.537zM5.143 4.886l0.343-0.257 2.177 2.914 1.794-1.343 0.217 0.291-2.131 1.594-2.4-3.2zM8.743 2.503l0.383-0.171 1.509 3.303 2.040-0.926 0.149 0.331-2.423 1.103-1.657-3.64zM16.274 3.817l0.086 0.36-2.754 0.646-0.914-3.897 2.674-0.623 0.080 0.354-2.286 0.531 0.326 1.383 2.011-0.474 0.086 0.354-2.017 0.469 0.343 1.446 2.366-0.549zM20.2 3.96l-0.954-1.257c-0.048 0.003-0.104 0.004-0.16 0.004s-0.112-0.002-0.168-0.005l0.008 0-1.074 0.034 0.040 1.269h-0.423l-0.131-4 1.52-0.006c0.050-0.005 0.108-0.008 0.166-0.008 0.392 0 0.755 0.125 1.051 0.337l-0.005-0.004c0.287 0.232 0.469 0.585 0.469 0.979 0 0.005-0 0.011-0 0.016v-0.001c0.017 0.282-0.057 0.563-0.211 0.8-0.163 0.224-0.39 0.394-0.653 0.483l-0.009 0.003 1 1.337-0.463 0.017zM19.8 2.080c0.181-0.167 0.295-0.405 0.295-0.67 0-0.028-0.001-0.055-0.004-0.082l0 0.004c0-0.006 0-0.012 0-0.019 0-0.286-0.131-0.542-0.336-0.711l-0.002-0.001c-0.218-0.15-0.488-0.239-0.779-0.239-0.041 0-0.083 0.002-0.123 0.005l0.005-0-1.086 0.040 0.069 2 1.063-0.034c0.015 0.001 0.033 0.001 0.051 0.001 0.321 0 0.616-0.11 0.849-0.295l-0.003 0.002zM23.223 2.897l-0.206 1.366-0.417-0.063 0.211-1.343-1.183-2.857 0.446 0.069 1.011 2.434 1.714-2.017 0.4 0.086-1.977 2.326zM28.874 2.657l0.497 0.646-0.217 0.171-0.497-0.663-0.314 0.749-0.24-0.103 0.32-0.749-0.823 0.109v-0.274l0.811-0.091-0.503-0.646 0.223-0.171 0.44 0.651 0.309-0.754 0.246 0.103-0.291 0.766 0.823-0.114v0.28l-0.783 0.091zM30.783 7.263c-0.129-0.197-0.217-0.431-0.245-0.684l-0.001-0.007 0.337-0.149c0.025 0.226 0.099 0.445 0.217 0.64 0.127 0.219 0.294 0.413 0.491 0.571 0.197 0.189 0.452 0.318 0.736 0.359l0.007 0.001c0.017 0.002 0.037 0.003 0.057 0.003 0.193 0 0.365-0.087 0.479-0.224l0.001-0.001c0.083-0.091 0.133-0.212 0.133-0.345 0-0.015-0.001-0.030-0.002-0.045l0 0.002c-0.020-0.148-0.069-0.281-0.14-0.399l0.003 0.005c-0.121-0.197-0.236-0.363-0.359-0.523l0.010 0.014c-0.141-0.182-0.277-0.388-0.398-0.603l-0.013-0.026c-0.089-0.154-0.144-0.339-0.149-0.536l-0-0.001c0-0.211 0.079-0.416 0.223-0.571 0.123-0.148 0.283-0.261 0.467-0.324l0.007-0.002c0.095-0.029 0.204-0.045 0.317-0.045s0.222 0.016 0.325 0.047l-0.008-0.002c0.28 0.093 0.522 0.234 0.728 0.414l-0.002-0.002c0.176 0.146 0.331 0.315 0.463 0.503 0.121 0.174 0.212 0.367 0.269 0.571l-0.326 0.171c-0.062-0.205-0.148-0.383-0.256-0.544l0.005 0.007c-0.111-0.15-0.238-0.279-0.379-0.391l-0.004-0.003c-0.194-0.188-0.448-0.314-0.731-0.348l-0.006-0.001c-0.015-0.001-0.033-0.002-0.051-0.002-0.197 0-0.372 0.092-0.485 0.235l-0.001 0.001c-0.083 0.088-0.134 0.207-0.134 0.337 0 0.018 0.001 0.036 0.003 0.053l-0-0.002c0.013 0.144 0.060 0.283 0.137 0.406 0.080 0.131 0.194 0.303 0.349 0.509 0.153 0.194 0.29 0.401 0.411 0.617 0.091 0.154 0.148 0.338 0.154 0.535l0 0.002c0 0.211-0.079 0.416-0.223 0.571-0.123 0.15-0.286 0.263-0.473 0.324l-0.007 0.002c-0.095 0.030-0.204 0.047-0.317 0.047s-0.222-0.017-0.325-0.049l0.008 0.002c-0.282-0.093-0.526-0.233-0.734-0.414l0.003 0.002c-0.228-0.199-0.418-0.433-0.565-0.695l-0.007-0.013zM36.531 8.097l-0.806-1.143 0.297-0.211 1.857 2.651-0.297 0.211-0.806-1.143-2.983 2.086-0.24-0.349 2.977-2.103zM35.251 12.794c0.107-0.357 0.306-0.659 0.569-0.89l0.002-0.002c0.256-0.23 0.573-0.396 0.924-0.472l0.013-0.002c0.139-0.033 0.299-0.052 0.463-0.052 0.218 0 0.429 0.034 0.626 0.096l-0.015-0.004c0.348 0.117 0.642 0.314 0.873 0.57l0.002 0.002c0.238 0.272 0.409 0.609 0.483 0.981l0.002 0.014c0.045 0.165 0.071 0.355 0.071 0.551s-0.026 0.386-0.074 0.567l0.004-0.015c-0.111 0.356-0.309 0.657-0.569 0.89l-0.002 0.002c-0.373 0.335-0.87 0.54-1.414 0.54-0.224 0-0.439-0.035-0.641-0.099l0.015 0.004c-0.35-0.111-0.646-0.309-0.872-0.569l-0.002-0.002c-0.237-0.271-0.407-0.606-0.483-0.975l-0.002-0.014c-0.037-0.152-0.059-0.326-0.059-0.506 0-0.219 0.032-0.43 0.092-0.63l-0.004 0.016zM36 14.611c0.191 0.217 0.438 0.377 0.714 0.463 0.148 0.044 0.318 0.070 0.493 0.070 0.446 0 0.854-0.165 1.166-0.438l-0.002 0.002c0.211-0.194 0.367-0.44 0.451-0.714 0.042-0.147 0.066-0.315 0.066-0.489 0-0.456-0.166-0.872-0.44-1.194l0.002 0.003c-0.195-0.213-0.444-0.374-0.726-0.46l-0.012-0.003c-0.132-0.036-0.284-0.057-0.44-0.057s-0.308 0.021-0.452 0.060l0.012-0.003c-0.303 0.060-0.568 0.199-0.778 0.395l0.001-0.001c-0.208 0.191-0.364 0.434-0.448 0.709l-0.003 0.011c-0.037 0.133-0.058 0.285-0.058 0.443s0.021 0.31 0.061 0.455l-0.003-0.012c0.067 0.296 0.205 0.553 0.395 0.761l-0.001-0.001zM34.817 19.429l1.48-0.571c0-0.103 0.034-0.206 0.063-0.314l0.28-1.034-1.211-0.314 0.109-0.406 3.863 1.034-0.389 1.446c-0.092 0.435-0.33 0.803-0.659 1.060l-0.004 0.003c-0.197 0.138-0.441 0.22-0.704 0.22-0.136 0-0.268-0.022-0.39-0.063l0.009 0.003c-0.561-0.125-0.974-0.617-0.977-1.205v-0l-1.577 0.571 0.109-0.429zM36.731 19.589c0.179 0.32 0.515 0.532 0.901 0.532 0.197 0 0.381-0.055 0.538-0.152l-0.004 0.003c0.246-0.199 0.421-0.478 0.484-0.797l0.001-0.009 0.274-1.029-1.937-0.52-0.274 1.029c-0.047 0.134-0.075 0.288-0.075 0.448 0 0.178 0.034 0.348 0.095 0.504l-0.003-0.009zM32.766 23.109l-0.291-0.223 1.714-2.257 3.189 2.417-1.657 2.189-0.291-0.223 1.4-1.846-1.143-0.863-1.251 1.651-0.286-0.217 1.28-1.651-1.183-0.897-1.48 1.92zM31.429 27.663l-0.817 0.046v-0.274l0.817-0.006-0.44-0.68 0.223-0.143 0.434 0.686 0.354-0.766 0.246 0.131-0.389 0.72 0.817-0.046v0.28h-0.829l0.44 0.68-0.223 0.143-0.434-0.686-0.377 0.743-0.24-0.137 0.417-0.691zM24 27.206l0.691 0.383c0.235-0.446 0.642-0.774 1.131-0.9l0.012-0.003c0.161-0.052 0.346-0.082 0.538-0.082 0.058 0 0.116 0.003 0.173 0.008l-0.007-0.001c0.216 0.017 0.411 0.092 0.575 0.208l-0.003-0.002c0.152 0.114 0.265 0.274 0.32 0.457 0.069 0.226 0.057 0.469-0.034 0.686-0.151 0.307-0.342 0.57-0.571 0.794l-0 0c0.189 0.101 0.363 0.226 0.52 0.371 0.108 0.111 0.188 0.246 0.234 0.394 0.015 0.056 0.023 0.12 0.023 0.187 0 0.183-0.065 0.352-0.173 0.483l0.001-0.001c-0.151 0.216-0.374 0.373-0.632 0.438l-0.008 0.002c-0.229 0.087-0.48 0.087-0.709 0-0.204-0.089-0.356-0.266-0.41-0.481l-0.001-0.005c-0.023-0.070-0.036-0.151-0.036-0.235 0-0.122 0.028-0.238 0.078-0.341l-0.002 0.005c0.138-0.27 0.308-0.502 0.509-0.703v0l-1.377-0.766c-0.053 0.269-0.064 0.545-0.034 0.817h-0.349c-0.004-0.057-0.007-0.124-0.007-0.191 0-0.287 0.044-0.563 0.126-0.823l-0.005 0.019-0.72-0.4 0.149-0.32zM24.994 27.777l1.514 0.84c0.194-0.186 0.357-0.403 0.479-0.644l0.006-0.014c0.063-0.166 0.063-0.349 0-0.514-0.054-0.202-0.203-0.361-0.396-0.427l-0.004-0.001c-0.109-0.038-0.235-0.060-0.366-0.060s-0.257 0.022-0.374 0.063l0.008-0.002c-0.398 0.107-0.717 0.378-0.888 0.735l-0.004 0.008 0.023 0.017zM27.143 30.063c0.045-0.075 0.072-0.165 0.072-0.262 0-0.058-0.009-0.113-0.027-0.165l0.001 0.004c-0.037-0.117-0.1-0.217-0.183-0.297l-0-0c-0.138-0.117-0.294-0.222-0.46-0.308l-0.014-0.006c-0.169 0.168-0.319 0.355-0.444 0.559l-0.007 0.013c-0.042 0.078-0.067 0.17-0.067 0.268 0 0.055 0.008 0.108 0.022 0.158l-0.001-0.004c0.038 0.134 0.129 0.242 0.249 0.302l0.003 0.001c0.146 0.055 0.306 0.055 0.451 0 0.159-0.043 0.292-0.139 0.381-0.266l0.001-0.002 0.023 0.006zM17.034 31.611l0.080-4h0.406l-0.063 3.2 1.623-2.663h0.2l1.52 2.709 0.057-3.183h0.406l-0.074 4h-0.349l-1.68-2.989-1.777 2.931-0.349-0.006zM15.046 27.429c0.373 0.356 0.604 0.856 0.604 1.411 0 0.202-0.031 0.397-0.088 0.58l0.004-0.014c-0.1 0.367-0.289 0.682-0.543 0.931l-0 0c-0.246 0.242-0.558 0.419-0.907 0.5l-0.013 0.003c-0.147 0.035-0.315 0.054-0.488 0.054-0.221 0-0.435-0.032-0.636-0.093l0.016 0.004c-0.375-0.093-0.699-0.275-0.961-0.521l0.001 0.001c-0.251-0.24-0.436-0.546-0.528-0.889l-0.003-0.013c-0.039-0.152-0.061-0.326-0.061-0.505 0-0.59 0.242-1.123 0.633-1.506l0-0c0.242-0.242 0.548-0.421 0.889-0.511l0.014-0.003c0.146-0.034 0.313-0.054 0.485-0.054 0.22 0 0.433 0.032 0.633 0.092l-0.016-0.004c0.378 0.098 0.704 0.285 0.966 0.538l-0.001-0.001zM13.097 27.229c-0.291 0.069-0.541 0.213-0.737 0.411l-0 0c-0.205 0.204-0.356 0.461-0.432 0.748l-0.003 0.012c-0.080 0.286-0.080 0.589 0 0.874 0.067 0.278 0.212 0.531 0.417 0.731 0.209 0.204 0.469 0.357 0.759 0.437l0.012 0.003c0.133 0.035 0.286 0.055 0.443 0.055s0.31-0.020 0.455-0.058l-0.012 0.003c0.28-0.069 0.536-0.211 0.743-0.411 0.203-0.204 0.355-0.461 0.432-0.748l0.003-0.012c0.038-0.132 0.060-0.283 0.060-0.44s-0.022-0.308-0.063-0.452l0.003 0.012c-0.078-0.288-0.225-0.535-0.423-0.731l-0-0c-0.21-0.204-0.472-0.356-0.765-0.432l-0.012-0.003c-0.132-0.038-0.283-0.060-0.44-0.060s-0.308 0.022-0.452 0.063l0.012-0.003zM8.771 24.571l0.154 1.571c0.098 0.042 0.194 0.090 0.286 0.143l0.931 0.537 0.629-1.109 0.371 0.211-2 3.446-1.303-0.749c-0.385-0.196-0.685-0.514-0.853-0.903l-0.005-0.012c-0.044-0.123-0.070-0.265-0.070-0.413 0-0.25 0.073-0.483 0.198-0.678l-0.003 0.005c0.133-0.25 0.343-0.451 0.6-0.571 0.15-0.064 0.324-0.101 0.507-0.101 0.112 0 0.221 0.014 0.325 0.040l-0.009-0.002-0.166-1.68 0.406 0.263zM8.12 26.377c-0.411 0.106-0.719 0.449-0.771 0.871l-0 0.005c-0.005 0.036-0.007 0.078-0.007 0.121 0 0.103 0.015 0.202 0.043 0.296l-0.002-0.007c0.134 0.296 0.366 0.536 0.657 0.68l0.92 0.531 1-1.714-0.92-0.531c-0.233-0.176-0.527-0.282-0.846-0.282-0.026 0-0.052 0.001-0.077 0.002l0.004-0v0.029zM5.389 21.891l0.257-0.257 1.971 2.029-2.857 2.789-1.903-1.966 0.263-0.257 1.617 1.663 0.977-0.989-1.417-1.474 0.274-0.263 1.446 1.486 1.063-1.034-1.691-1.726zM1.143 19.646l0.137-0.789 0.269 0.040-0.154 0.811 0.76-0.28 0.091 0.251-0.771 0.263 0.634 0.537-0.183 0.206-0.611-0.571-0.143 0.811-0.274-0.051 0.16-0.811-0.766 0.274-0.086-0.223 0.766-0.269-0.634-0.531 0.189-0.206 0.617 0.537z"></path>
</symbol><symbol id="icon-close-black" viewBox="0 0 32 32"><path d="m26.667 9.081-1.97-1.97-7.808 7.808-7.808-7.808-1.97 1.97 7.808 7.808-7.808 7.808 1.97 1.97 7.808-7.808 7.808 7.808 1.97-1.97-7.808-7.808 7.808-7.808z"/></symbol><symbol id="icon-icon-check" viewBox="0 0 42 32"><path fill="#fff" style="fill:var(--color1, #fff);stroke:var(--color1, #fff)" stroke="#fff" stroke-width=".64" d="m6.262 15.206-.221-.211-.221.208-3.085 2.925.243.234 11.408 10.88.221-.211L38.863 5.892l-.243-.23-3.043-2.902-.221.211-20.97 19.987-8.125-7.75z"/></symbol><symbol id="icon-email-black" viewBox="0 0 32 32"><path d="M26.667 5.333H5.334A2.662 2.662 0 0 0 2.682 8l-.014 16c0 1.467 1.2 2.667 2.667 2.667h21.333c1.467 0 2.667-1.2 2.667-2.667V8c0-1.467-1.2-2.667-2.667-2.667zm-.534 5.668-9.426 5.892a1.343 1.343 0 0 1-1.421-.004l.006.003L5.866 11A1.133 1.133 0 1 1 7.07 9.083l-.004-.003 8.933 5.586 8.933-5.588a1.132 1.132 0 1 1 1.204 1.916l-.005.003z"/></symbol><symbol id="icon-phone-black" viewBox="0 0 32 32"><path d="m24.882 19.774-3.268-.373a2.552 2.552 0 0 0-2.11.732l-2.368 2.368c-3.669-1.894-6.585-4.81-8.427-8.372l-.051-.108 2.382-2.377a2.552 2.552 0 0 0 .731-2.122l.001.012-.373-3.243a2.578 2.578 0 0 0-2.557-2.276H6.613c-1.454 0-2.663 1.209-2.574 2.661.683 10.987 9.47 19.762 20.444 20.444 1.452.089 2.663-1.12 2.663-2.574v-2.238a2.549 2.549 0 0 0-2.253-2.532l-.012-.001z"/></symbol><symbol id="icon-person-black" viewBox="0 0 32 32"><path d="M16 16a5.333 5.333 0 1 0 0-10.666A5.333 5.333 0 1 0 16 16zm0 2.667c-3.561 0-10.667 1.787-10.667 5.333v1.333c0 .732.599 1.333 1.333 1.333h18.667c.732 0 1.333-.601 1.333-1.333V24c0-3.547-7.108-5.333-10.667-5.333z"/></symbol><symbol id="icon-close_40px" viewBox="0 0 32 32"><path d="M23.734 10.304 22.23 8.8l-5.963 5.962L10.305 8.8l-1.504 1.504 5.962 5.962-5.962 5.963 1.504 1.504 5.962-5.963 5.963 5.963 1.504-1.504-5.963-5.963 5.963-5.962z"/></symbol><symbol id="icon-close" viewBox="0 0 32 32"><path d="M23.733 10.304 22.229 8.8l-5.963 5.963L10.303 8.8l-1.504 1.504 5.963 5.963-5.963 5.963 1.504 1.504 5.963-5.963 5.963 5.963 1.504-1.504-5.963-5.963 5.963-5.963z"/></symbol><symbol id="icon-facebook" viewBox="0 0 32 32"><path d="M21.328 5.312h2.923V.224A36.478 36.478 0 0 0 20.144 0h-.157.008c-4.213 0-7.099 2.65-7.099 7.52V12H8.25v5.688h4.646V32h5.698V17.69h4.461l.707-5.688h-5.168V8.08c0-1.643.443-2.768 2.734-2.768z"/></symbol><symbol id="icon-instagram" viewBox="0 0 32 32"><path  d="M31.968 9.408c-.074-1.701-.349-2.869-.742-3.882a7.839 7.839 0 0 0-1.85-2.837l-.001-.001A7.906 7.906 0 0 0 26.597.861l-.054-.018C25.524.449 24.362.176 22.661.101 20.949.019 20.405 0 16.059 0c-4.344 0-4.888.019-6.595.094-1.699.074-2.869.349-3.88.742a7.847 7.847 0 0 0-2.839 1.85l-.001.001A7.9 7.9 0 0 0 .919 5.465l-.018.054C.506 6.538.232 7.7.157 9.401c-.082 1.712-.101 2.256-.101 6.602 0 4.344.019 4.888.094 6.595.075 1.701.35 2.869.744 3.882a7.915 7.915 0 0 0 1.849 2.837l.001.001c.8.813 1.77 1.443 2.832 1.843 1.019.395 2.182.67 3.882.744 1.707.075 2.251.094 6.595.094 4.346 0 4.89-.019 6.595-.094 1.701-.074 2.869-.349 3.882-.742a8.237 8.237 0 0 0 4.664-4.628l.019-.055c.394-1.019.669-2.182.744-3.882.075-1.707.093-2.251.093-6.595s-.006-4.888-.08-6.595zm-2.88 13.066c-.07 1.563-.333 2.406-.55 2.97a5.341 5.341 0 0 1-3.004 3.024l-.036.012c-.56.219-1.411.482-2.968.55-1.688.075-2.194.094-6.464.094-4.269 0-4.782-.019-6.464-.094-1.563-.069-2.406-.331-2.97-.55a4.953 4.953 0 0 1-1.836-1.192l-.001-.001a4.978 4.978 0 0 1-1.184-1.803L3.6 25.45c-.218-.563-.48-1.413-.549-2.97-.075-1.688-.094-2.195-.094-6.464 0-4.27.019-4.784.094-6.464.069-1.563.331-2.406.549-2.97a4.897 4.897 0 0 1 1.198-1.837l.002-.002a4.972 4.972 0 0 1 1.806-1.182l.034-.011c.56-.219 1.411-.48 2.968-.55 1.688-.074 2.195-.093 6.464-.093 4.275 0 4.782.019 6.464.093 1.563.069 2.406.331 2.97.55a4.91 4.91 0 0 1 1.837 1.194c.531.52.938 1.144 1.195 1.84.218.56.48 1.411.549 2.968.075 1.688.094 2.194.094 6.464 0 4.269-.019 4.768-.094 6.458z"/><path  d="M16.059 7.782a8.223 8.223 0 0 0-8.219 8.221 8.223 8.223 0 0 0 16.442.008v-.009a8.223 8.223 0 0 0-8.221-8.221zm0 13.552a5.333 5.333 0 0 1 .001-10.666h.001a5.334 5.334 0 1 1 0 10.668zM26.525 7.458a1.92 1.92 0 0 1-3.84 0 1.92 1.92 0 0 1 3.84 0z"/></symbol><symbol id="icon-linkedin" viewBox="0 0 32 32"><path d="M31.992 32H32V20.262c0-5.741-1.235-10.163-7.947-10.163-3.227 0-5.392 1.77-6.277 3.45h-.093v-2.914h-6.365v21.363h6.627V21.42c0-2.786.528-5.48 3.978-5.48 3.398 0 3.45 3.179 3.45 5.658V32h6.619zM.528 10.635h6.635V32H.528V10.635zM3.843 0A3.843 3.843 0 0 0 0 3.843c0 2.12 1.722 3.878 3.843 3.878 2.12 0 3.842-1.757 3.842-3.878S5.965.002 3.844 0z"/></symbol><symbol id="icon-Logo" viewBox="0 0 39 32"><path d="m22.371 9.64-.749-.571a.57.57 0 0 0-.8.079l-.001.001-10.36 11.897.16.177 2.566-2.366a.395.395 0 0 1 .147-.76h.007c.174 0 .321.114.371.272l.001.003 3.383-3.137a.291.291 0 0 1 .366 0h-.001l.171.126a.285.285 0 0 0 .382-.046l4.423-4.96a.474.474 0 0 0-.067-.714l-.001-.001z"/><path fill="#fff" style="fill:var(--color2, #fff)" d="M27.24 12.989a22.87 22.87 0 0 1-7.335 3.477l-.162.037c-2.401.638-5.193 1.072-8.063 1.208l-.092.003c.055.406.155.805.297 1.189 1.554 1.406 13.257-.994 15.543-3.771.486-.577-.189-2.143-.189-2.143zm-13.897 5.868a.389.389 0 1 1 .389-.389v.006a.382.382 0 0 1-.382.382h-.007zM2.286 12.166l.091-.394 1.486.337c.123.226.198.475.223.731a2.43 2.43 0 0 1-.051.811 2.157 2.157 0 0 1-.493.997l.002-.002a1.97 1.97 0 0 1-.866.568l-.014.004a2.109 2.109 0 0 1-1.095.038l.014.003a2.001 2.001 0 0 1-.955-.504l.001.001a1.883 1.883 0 0 1-.54-.884l-.003-.013a2.15 2.15 0 0 1 .004-1.158l-.004.015c.062-.28.171-.547.326-.789.147-.22.339-.399.563-.527l.008-.004.206.314a1.64 1.64 0 0 0-.753 1.099l-.002.01a1.792 1.792 0 0 0 .02.91l-.003-.013c.077.278.229.529.44.726.217.21.488.354.783.417.286.08.589.08.874 0 .283-.095.524-.255.713-.462l.001-.001c.2-.23.337-.507.4-.806a1.755 1.755 0 0 0-.073-1.103l.004.012-1.309-.331zM5.52 8.571l-1.331 1.777.571 1.023-.263.354-2.114-3.857.246-.337 4.303.926-.269.354-1.143-.24zm-.377-.091-2.286-.514L4 10.017 5.143 8.48zm0-3.594.343-.257 2.177 2.914L9.457 6.2l.217.291-2.131 1.594-2.4-3.2zm3.6-2.383.383-.171 1.509 3.303 2.04-.926.149.331-2.423 1.103-1.657-3.64zm7.531 1.314.086.36-2.754.646-.914-3.897 2.674-.623.08.354-2.286.531.326 1.383 2.011-.474.086.354-2.017.469.343 1.446 2.366-.549zm3.926.143-.954-1.257a2.847 2.847 0 0 1-.32 0l-1.074.034.04 1.269h-.423l-.131-4L18.858 0a1.8 1.8 0 0 1 1.217.329L20.07.325c.287.232.469.585.469.979v.016-.001c.017.282-.057.563-.211.8a1.34 1.34 0 0 1-.653.483l-.009.003 1 1.337-.463.017zm-.4-1.88a.909.909 0 0 0 .291-.752v.004-.019a.92.92 0 0 0-.336-.711l-.002-.001a1.373 1.373 0 0 0-.902-.234h.005l-1.086.04.069 2 1.063-.034a1.36 1.36 0 0 0 .9-.294l-.003.002zm3.423.817-.206 1.366L22.6 4.2l.211-1.343L21.628 0l.446.069 1.011 2.434L24.799.486l.4.086-1.977 2.326zm5.651-.24.497.646-.217.171-.497-.663-.314.749-.24-.103.32-.749-.823.109v-.274l.811-.091-.503-.646.223-.171.44.651.309-.754.246.103-.291.766.823-.114v.28l-.783.091zm1.909 4.606a1.565 1.565 0 0 1-.245-.684l-.001-.007.337-.149c.025.226.099.445.217.64.127.219.294.413.491.571.197.189.452.318.736.359l.007.001a.62.62 0 0 0 .536-.221l.001-.001a.51.51 0 0 0 .133-.345l-.002-.045v.002a1.037 1.037 0 0 0-.14-.399l.003.005a5.935 5.935 0 0 0-.359-.523l.01.014a4.995 4.995 0 0 1-.398-.603l-.013-.026a1.133 1.133 0 0 1-.149-.536v-.001a.84.84 0 0 1 .223-.571c.123-.148.283-.261.467-.324l.007-.002a1.125 1.125 0 0 1 .642.002l-.008-.002c.28.093.522.234.728.414l-.002-.002c.176.146.331.315.463.503.121.174.212.367.269.571l-.326.171a2.006 2.006 0 0 0-.256-.544l.005.007a2.068 2.068 0 0 0-.379-.391l-.004-.003a1.265 1.265 0 0 0-.731-.348l-.006-.001a.616.616 0 0 0-.536.233l-.001.001a.49.49 0 0 0-.131.39v-.002c.013.144.06.283.137.406.08.131.194.303.349.509.153.194.29.401.411.617.091.154.148.338.154.535v.002a.84.84 0 0 1-.223.571 1.02 1.02 0 0 1-.473.324l-.007.002a1.093 1.093 0 0 1-.642-.002l.008.002a2.115 2.115 0 0 1-.734-.414l.003.002a2.626 2.626 0 0 1-.565-.695l-.007-.013zm5.748.834-.806-1.143.297-.211 1.857 2.651-.297.211-.806-1.143-2.983 2.086-.24-.349 2.977-2.103zm-1.28 4.697c.107-.357.306-.659.569-.89l.002-.002c.256-.23.573-.396.924-.472l.013-.002a2.086 2.086 0 0 1 1.089.044l-.015-.004c.348.117.642.314.873.57l.002.002c.238.272.409.609.483.981l.002.014a2.21 2.21 0 0 1-.003 1.118l.004-.015a1.975 1.975 0 0 1-.569.89l-.002.002a2.111 2.111 0 0 1-2.055.441l.015.004a1.912 1.912 0 0 1-.872-.569l-.002-.002a2.137 2.137 0 0 1-.483-.975l-.002-.014a2.187 2.187 0 0 1 .033-1.136l-.004.016zM36 14.611a1.575 1.575 0 0 0 1.207.533c.446 0 .854-.165 1.166-.438l-.002.002c.211-.194.367-.44.451-.714a1.835 1.835 0 0 0-.374-1.683l.002.003a1.63 1.63 0 0 0-.726-.46l-.012-.003a1.697 1.697 0 0 0-.892.003l.012-.003c-.303.06-.568.199-.778.395l.001-.001a1.594 1.594 0 0 0-.448.709l-.003.011a1.705 1.705 0 0 0 .003.898l-.003-.012c.067.296.205.553.395.761l-.001-.001zm-1.183 4.818 1.48-.571c0-.103.034-.206.063-.314l.28-1.034-1.211-.314.109-.406 3.863 1.034-.389 1.446c-.092.435-.33.803-.659 1.06l-.004.003a1.226 1.226 0 0 1-1.094.157l.009.003a1.242 1.242 0 0 1-.977-1.205l-1.577.571.109-.429zm1.914.16a1.03 1.03 0 0 0 1.439.38l-.004.003c.246-.199.421-.478.484-.797l.001-.009.274-1.029-1.937-.52-.274 1.029a1.366 1.366 0 0 0 .02.952l-.003-.009zm-3.965 3.52-.291-.223 1.714-2.257 3.189 2.417-1.657 2.189-.291-.223 1.4-1.846-1.143-.863-1.251 1.651-.286-.217 1.28-1.651-1.183-.897-1.48 1.92zm-1.337 4.554-.817.046v-.274l.817-.006-.44-.68.223-.143.434.686.354-.766.246.131-.389.72.817-.046v.28h-.829l.44.68-.223.143-.434-.686-.377.743-.24-.137.417-.691zM24 27.206l.691.383a1.781 1.781 0 0 1 1.131-.9l.012-.003a1.77 1.77 0 0 1 .711-.074l-.007-.001c.216.017.411.092.575.208l-.003-.002a.894.894 0 0 1 .32.457c.069.226.057.469-.034.686-.151.307-.342.57-.571.794.189.101.363.226.52.371a.983.983 0 0 1 .234.394.758.758 0 0 1-.15.67l.001-.001a1.1 1.1 0 0 1-.632.438l-.008.002a.996.996 0 0 1-.709 0 .716.716 0 0 1-.41-.481l-.001-.005a.78.78 0 0 1 .042-.576l-.002.005a2.76 2.76 0 0 1 .509-.703l-1.377-.766a2.7 2.7 0 0 0-.034.817h-.349a2.73 2.73 0 0 1 .119-1.014l-.005.019-.72-.4.149-.32zm.994.571 1.514.84c.194-.186.357-.403.479-.644l.006-.014a.723.723 0 0 0 0-.514.618.618 0 0 0-.396-.427l-.004-.001a1.123 1.123 0 0 0-.74.003l.008-.002a1.376 1.376 0 0 0-.888.735l-.004.008.023.017zm2.149 2.286a.509.509 0 0 0 .045-.427l.001.004a.703.703 0 0 0-.183-.297 2.479 2.479 0 0 0-.46-.308l-.014-.006a2.999 2.999 0 0 0-.444.559l-.007.013a.566.566 0 0 0-.045.426l-.001-.004a.483.483 0 0 0 .249.302l.003.001a.637.637 0 0 0 .451 0 .68.68 0 0 0 .381-.266l.001-.002.023.006zm-10.109 1.548.08-4h.406l-.063 3.2 1.623-2.663h.2l1.52 2.709.057-3.183h.406l-.074 4h-.349l-1.68-2.989-1.777 2.931-.349-.006zm-1.988-4.182a1.943 1.943 0 0 1 .516 1.991l.004-.014c-.1.367-.289.682-.543.931a1.91 1.91 0 0 1-.907.5l-.013.003a2.189 2.189 0 0 1-1.124-.039l.016.004a2.15 2.15 0 0 1-.961-.521l.001.001a1.918 1.918 0 0 1-.528-.889l-.003-.013a2.1 2.1 0 0 1 .572-2.011c.242-.242.548-.421.889-.511l.014-.003a2.202 2.202 0 0 1 1.118.038l-.016-.004c.378.098.704.285.966.538l-.001-.001zm-1.949-.2a1.523 1.523 0 0 0-.737.411 1.652 1.652 0 0 0-.432.748l-.003.012c-.08.286-.08.589 0 .874.067.278.212.531.417.731.209.204.469.357.759.437l.012.003a1.796 1.796 0 0 0 .898-.003l-.012.003a1.63 1.63 0 0 0 .743-.411 1.68 1.68 0 0 0 .432-.748l.003-.012a1.645 1.645 0 0 0-.003-.892l.003.012a1.613 1.613 0 0 0-.423-.731 1.718 1.718 0 0 0-.765-.432l-.012-.003a1.645 1.645 0 0 0-.892.003l.012-.003zm-4.326-2.658.154 1.571c.098.042.194.09.286.143l.931.537.629-1.109.371.211-2 3.446-1.303-.749a1.826 1.826 0 0 1-.853-.903l-.005-.012a1.253 1.253 0 0 1 .128-1.091l-.003.005c.133-.25.343-.451.6-.571a1.299 1.299 0 0 1 .832-.061l-.009-.002-.166-1.68.406.263zm-.651 1.806a1.033 1.033 0 0 0-.771.871v.005a1.034 1.034 0 0 0 .036.417l-.002-.007c.134.296.366.536.657.68l.92.531 1-1.714-.92-.531a1.401 1.401 0 0 0-.923-.28h.004v.029zm-2.731-4.486.257-.257 1.971 2.029-2.857 2.789-1.903-1.966.263-.257 1.617 1.663.977-.989-1.417-1.474.274-.263 1.446 1.486 1.063-1.034-1.691-1.726zm-4.246-2.245.137-.789.269.04-.154.811.76-.28.091.251-.771.263.634.537-.183.206-.611-.571-.143.811-.274-.051.16-.811-.766.274-.086-.223.766-.269-.634-.531.189-.206.617.537z"/></symbol><symbol id="icon-mail" viewBox="0 0 32 32"><path fill="none" stroke="#9da4bd" style="stroke:var(--color3, #9da4bd)" stroke-linejoin="round" stroke-linecap="round" stroke-width="1.333" d="M6.4 6.667h19.2C26.92 6.667 28 7.716 28 9v14c0 1.283-1.08 2.333-2.4 2.333H6.4C5.08 25.333 4 24.282 4 23V9c0-1.284 1.08-2.333 2.4-2.333z"/><path fill="none" stroke="#9da4bd" style="stroke:var(--color3, #9da4bd)" stroke-linejoin="round" stroke-linecap="round" stroke-width="1.333" d="m26.667 9.333-10.667 8-10.667-8"/></symbol><symbol id="icon-map-pin" viewBox="0 0 32 32"><path fill="none" stroke="#9da4bd" style="stroke:var(--color3, #9da4bd)" stroke-linejoin="round" stroke-linecap="round" stroke-width="1.333" d="M26.667 13.819C26.667 21.454 16 28 16 28S5.333 21.453 5.333 13.819C5.333 8.396 10.109 4 16 4s10.667 4.396 10.667 9.819v0z"/><path fill="none" stroke="#9da4bd" style="stroke:var(--color3, #9da4bd)" stroke-linejoin="round" stroke-linecap="round" stroke-width="1.333" d="M16 18.667a4 4 0 0 0 0-8v0a4 4 0 0 0 0 8v0z"/></symbol><symbol id="icon-menu" viewBox="0 0 48 32"><path fill="#fff" style="fill:var(--color2, #fff)" d="M0 5.334V0h48v5.334H0zm0 13.332h48v-5.332H0v5.332zM0 32h48v-5.334H0V32z"/></symbol><symbol id="icon-phone" viewBox="0 0 32 32"><path fill="none" stroke="#9da4bd" style="stroke:var(--color3, #9da4bd)" stroke-linejoin="round" stroke-linecap="round" stroke-width="1.333" d="M26.667 21.337v3.226a2.147 2.147 0 0 1-2.347 2.138l.008.001c-3.481-.388-6.626-1.563-9.338-3.343l.081.05a21.113 21.113 0 0 1-6.386-6.353l-.05-.083A20.982 20.982 0 0 1 5.35 7.768l-.008-.095a2.145 2.145 0 0 1 2.136-2.338h3.239c1.079 0 1.972.797 2.123 1.834l.001.012c.136 1.029.387 2.04.751 3.013a2.144 2.144 0 0 1-.483 2.264l-1.363 1.361c1.555 2.7 3.736 4.881 6.353 6.392l.083.044 1.363-1.361a2.14 2.14 0 0 1 2.278-.477l-.015-.005c.973.363 1.984.613 3.013.751a2.148 2.148 0 0 1 1.847 2.125l-.001.056v-.003z"/></symbol><symbol id="icon-twitter" viewBox="0 0 32 32"><path d="M32 6.078c-1.1.493-2.376.857-3.713 1.028l-.068.007a6.556 6.556 0 0 0 2.873-3.579l.013-.046a12.88 12.88 0 0 1-4.076 1.573l-.084.014A6.558 6.558 0 0 0 15.6 9.557v.004c0 .52.043 1.021.152 1.496-5.454-.266-10.28-2.88-13.522-6.861a6.524 6.524 0 0 0-.902 3.313v.001a6.57 6.57 0 0 0 2.914 5.451 6.453 6.453 0 0 1-2.994-.823l.033.017v.072a6.592 6.592 0 0 0 5.213 6.44l.043.008a6.403 6.403 0 0 1-1.662.215h-.061.003c-.419 0-.843-.024-1.242-.112.85 2.598 3.261 4.509 6.13 4.57a13.093 13.093 0 0 1-8.122 2.8H1.57h.001-.062c-.531 0-1.055-.034-1.569-.099l.061.006c2.826 1.846 6.287 2.944 10.004 2.944h.063-.003c12.072 0 18.672-10 18.672-18.669 0-.288-.01-.57-.024-.848a13.203 13.203 0 0 0 3.258-3.355l.03-.047z"/></symbol></defs></svg>